<?xml version="1.0" encoding="UTF-8" standalone="no"?>
<!-- Created with Inkscape (http://www.inkscape.org/) -->

<svg
   width="210mm"
   height="297mm"
   viewBox="0 0 210 297"
   version="1.1"
   id="svg5"
   inkscape:version="1.1.2 (b8e25be833, 2022-02-05)"
   sodipodi:docname="drawing.svg"
   xmlns:inkscape="http://www.inkscape.org/namespaces/inkscape"
   xmlns:sodipodi="http://sodipodi.sourceforge.net/DTD/sodipodi-0.dtd"
   xmlns="http://www.w3.org/2000/svg"
   xmlns:svg="http://www.w3.org/2000/svg">
  <sodipodi:namedview
     id="namedview7"
     pagecolor="#ffffff"
     bordercolor="#666666"
     borderopacity="1.0"
     inkscape:pageshadow="2"
     inkscape:pageopacity="0.0"
     inkscape:pagecheckerboard="0"
     inkscape:document-units="mm"
     showgrid="false"
     inkscape:zoom="1.0469406"
     inkscape:cx="295.62326"
     inkscape:cy="583.6052"
     inkscape:window-width="1920"
     inkscape:window-height="1017"
     inkscape:window-x="-8"
     inkscape:window-y="-8"
     inkscape:window-maximized="1"
     inkscape:current-layer="layer1" />
  <defs
     id="defs2" />
  <g
     inkscape:label="Layer 1"
     inkscape:groupmode="layer"
     id="layer1">
    <path
       id="path914"
       style="fill:#000000;fill-opacity:1;stroke:none;stroke-width:0.25272;stroke-opacity:1"
       d="m 18.704313,106.1272 c 9.696919,-5.86003 20.125152,-9.808137 32.852148,-12.097967 14.721251,-2.64863 32.150117,1.15978 50.438509,4.35992 -17.305818,12.076387 -39.086675,31.823947 -49.372337,54.995117 -20.931713,61.21135 27.154227,95.23547 84.044747,69.11942 29.50868,-13.24017 68.89437,-47.99293 48.57141,-76.31042 -22.22951,-24.20388 -52.55637,-3.90455 -66.62816,10.67978 l -0.0508,-57.244657 c 30.08662,-0.07674 52.11792,-11.613234 71.4406,-29.150606 C 161.28909,86.466644 130.92736,82.375412 101.4311,76.048283 62.287018,68.034591 39.834617,85.451443 18.704313,106.1272 Z M 114.55985,99.628523 V 210.47266 l -7,-1.58806 V 99.628523 Z m -11,108.193077 c -52.917622,-18.42102 -32.378206,-77.74743 0,-105.97785 z m 57.46073,-43.25175 -42.46073,18.9121 v -21.13647 c 14.39759,-12.14896 34.67058,-11.84544 42.46073,2.22437 z m 1.72206,3.76529 c 1.05921,1.40523 1.60554,2.89594 1.95323,4.41976 l -46.13602,19.78193 v -4.98045 c 4.54133,-1.84422 44.18279,-19.22124 44.18279,-19.22124 z m 2.80319,8.7696 c 0.19379,26.45519 -26.66833,34.06005 -46.98598,33.91445 v -14.74822 z"
       sodipodi:nodetypes="cscccccccccccccccccccccccccccccc"
       inkscape:export-filename="C:\Users\Thomas\path914.png"
       inkscape:export-xdpi="192.11426"
       inkscape:export-ydpi="192.11426" />
  </g>
</svg>
